<?xml version="1.0" standalone="no"?>
<!DOCTYPE svg PUBLIC "-//W3C//DTD SVG 20010904//EN"
 "http://www.w3.org/TR/2001/REC-SVG-20010904/DTD/svg10.dtd">
<svg version="1.0" xmlns="http://www.w3.org/2000/svg"
 width="1024.000000pt" height="1024.000000pt" viewBox="0 0 1024.000000 1024.000000"
 preserveAspectRatio="xMidYMid meet">
<metadata>
Created by potrace 1.13, written by Peter Selinger 2001-2015
</metadata>
<g transform="translate(0.000000,1024.000000) scale(0.100000,-0.100000)"
fill="#000000" stroke="none">
<path d="M4907 6694 c-4 -4 -7 -26 -7 -49 l0 -42 -55 -7 c-128 -15 -276 -98
-357 -199 -49 -62 -102 -170 -123 -252 -21 -83 -21 -453 0 -544 37 -154 160
-318 290 -388 127 -67 29 -63 1655 -63 1626 0 1528 -4 1655 63 73 39 178 142
224 221 60 100 82 198 88 381 9 273 -25 421 -129 559 -90 120 -214 196 -360
219 l-67 11 -3 44 -3 44 -135 2 -135 1 -3 -47 -3 -48 -494 0 -494 0 -3 48 -3
47 -135 0 -135 0 -3 -47 -3 -48 -494 0 -494 0 -3 48 -3 47 -131 3 c-71 1 -133
-1 -137 -4z"/>
<path d="M3668 6250 c-140 -11 -191 -26 -251 -73 -78 -61 -222 -191 -419 -379
-144 -137 -189 -174 -240 -197 -105 -48 -226 -81 -366 -102 -255 -37 -389 -75
-452 -128 l-35 -29 3 -270 3 -270 -28 -7 c-88 -21 -120 -140 -57 -215 37 -43
164 -77 200 -52 6 4 14 25 18 47 11 62 72 176 125 236 112 124 271 174 443
138 117 -25 226 -105 282 -209 29 -53 66 -185 66 -235 l0 -32 143 -7 c78 -3
358 -7 622 -8 l480 -3 3 891 2 891 -45 6 c-79 11 -397 16 -497 7z m368 -73 c3
-3 -5 -136 -18 -296 l-23 -291 -341 0 c-187 0 -375 3 -417 6 l-77 7 0 59 c0
33 -4 68 -10 78 -11 21 14 59 132 197 86 101 184 191 236 217 18 9 74 21 125
26 92 9 384 7 393 -3z"/>
<path d="M4230 4812 l0 -242 458 0 c253 0 547 3 655 7 l196 6 15 52 c32 107
133 228 235 279 145 74 306 73 445 -2 106 -57 217 -199 233 -298 l6 -34 58 0
58 0 15 53 c20 67 80 160 138 214 127 115 322 153 481 93 127 -48 248 -175
285 -301 l17 -59 225 -2 225 -3 0 -35 1 -35 112 -3 112 -3 0 271 0 270 -582 0
c-321 0 -1214 3 -1985 7 l-1403 6 0 -241z"/>
<path d="M2366 4899 c-290 -101 -383 -455 -181 -686 90 -103 201 -148 344
-141 70 3 99 10 153 35 89 42 165 117 209 208 32 67 34 75 34 180 0 104 -2
114 -32 176 -41 83 -121 166 -195 202 -73 36 -86 39 -188 43 -68 3 -97 0 -144
-17z m225 -235 c37 -19 85 -76 99 -119 38 -114 -61 -245 -185 -245 -143 0
-238 155 -172 280 50 95 165 132 258 84z"/>
<path d="M5885 4902 c-120 -41 -204 -116 -259 -232 -29 -61 -31 -72 -31 -175
0 -103 2 -114 32 -178 42 -89 121 -168 210 -209 55 -26 83 -33 154 -36 186 -9
333 79 413 247 29 62 31 73 31 176 0 102 -2 114 -31 175 -78 162 -222 251
-407 250 -34 -1 -85 -8 -112 -18z m234 -250 c128 -79 117 -262 -21 -333 -101
-52 -237 8 -268 119 -14 53 -12 81 10 127 23 50 37 67 73 90 63 40 135 39 206
-3z"/>
<path d="M6945 4906 c-118 -37 -217 -124 -268 -234 -77 -170 -27 -388 115
-505 142 -117 350 -130 502 -33 272 175 262 575 -19 731 -96 53 -237 71 -330
41z m217 -248 c104 -52 130 -202 50 -290 -44 -49 -85 -68 -147 -68 -121 0
-217 122 -186 235 36 130 161 185 283 123z"/>
</g>
</svg>
