<?xml version="1.0" standalone="no"?>
<!DOCTYPE svg PUBLIC "-//W3C//DTD SVG 20010904//EN"
 "http://www.w3.org/TR/2001/REC-SVG-20010904/DTD/svg10.dtd">
<svg version="1.0" xmlns="http://www.w3.org/2000/svg"
 width="355.000000pt" height="279.000000pt" viewBox="0 0 355.000000 279.000000"
 preserveAspectRatio="xMidYMid meet">
<metadata>
Created by potrace 1.13, written by Peter Selinger 2001-2015
</metadata>
<g transform="translate(0.000000,279.000000) scale(0.100000,-0.100000)"
fill="#000000" stroke="none">
<path d="M1700 2771 c-19 -4 -48 -15 -65 -23 -33 -18 -1559 -1286 -1587 -1320
-32 -36 -22 -62 62 -162 84 -99 111 -117 151 -95 13 6 347 282 743 613 396
331 728 607 737 613 15 11 103 -59 689 -548 855 -712 826 -689 854 -689 26 0
63 35 146 139 81 101 88 90 -197 326 l-242 200 0 451 c-1 439 -2 451 -21 472
-20 21 -27 22 -254 22 -224 0 -234 -1 -252 -21 -17 -19 -19 -43 -24 -240 l-5
-220 -255 215 c-140 118 -275 226 -300 239 -50 27 -126 39 -180 28z"/>
<path d="M1137 1713 l-617 -508 3 -542 c2 -530 2 -542 23 -570 46 -63 46 -63
512 -63 l422 0 0 410 0 410 275 0 275 0 0 -410 0 -410 428 0 c408 0 428 1 460
20 18 11 41 34 52 52 19 32 20 52 20 568 l0 535 -212 175 c-117 96 -393 325
-615 508 -221 182 -404 332 -406 332 -2 0 -281 -228 -620 -507z"/>
</g>
</svg>
