<?xml version="1.0" standalone="no"?>
<!DOCTYPE svg PUBLIC "-//W3C//DTD SVG 20010904//EN"
 "http://www.w3.org/TR/2001/REC-SVG-20010904/DTD/svg10.dtd">
<svg version="1.0" xmlns="http://www.w3.org/2000/svg"
 width="320.000000pt" height="381.000000pt" viewBox="0 0 320.000000 381.000000"
 preserveAspectRatio="xMidYMid meet">
<metadata>
Created by potrace 1.13, written by Peter Selinger 2001-2015
</metadata>
<g transform="translate(0.000000,381.000000) scale(0.100000,-0.100000)"
fill="#000000" stroke="none">
<path d="M750 3347 l0 -463 -68 -10 c-103 -17 -173 -53 -251 -131 -75 -75
-113 -144 -131 -238 -8 -43 -10 -308 -8 -945 l3 -885 23 -57 c52 -127 166
-238 290 -280 l67 -23 855 -3 c569 -2 878 1 925 8 143 22 282 117 348 239 56
102 57 110 57 1037 0 538 -4 871 -10 905 -17 90 -64 175 -133 243 -76 74 -151
114 -249 130 l-73 12 1 462 1 462 -333 0 -332 0 -4 -87 c-4 -103 -18 -131 -86
-164 -51 -25 -104 -22 -156 10 -45 28 -68 81 -74 169 l-5 72 -328 0 -329 0 0
-463z m475 178 c36 -74 106 -142 185 -179 60 -29 73 -31 170 -31 100 0 108 2
167 33 78 43 147 112 179 179 l25 53 104 0 105 0 0 -330 0 -330 -585 0 -585 0
0 330 0 330 104 0 104 0 27 -55z m1233 -890 c63 -19 119 -66 143 -120 18 -38
19 -90 19 -915 0 -832 -1 -877 -19 -916 -23 -50 -63 -90 -116 -115 -38 -18
-80 -19 -911 -19 l-870 0 -55 27 c-65 34 -105 89 -119 166 -7 35 -10 360 -8
888 3 779 4 837 21 874 31 69 90 118 162 136 17 4 406 7 866 8 726 1 842 -1
887 -14z"/>
<path d="M665 236 c-68 -30 -93 -104 -55 -164 40 -65 -2 -63 979 -60 885 3
890 3 918 24 15 11 34 39 42 61 13 36 12 43 -5 79 -38 79 21 74 -969 74 -708
-1 -886 -3 -910 -14z"/>
</g>
</svg>
