<?xml version="1.0" standalone="no"?>
<!DOCTYPE svg PUBLIC "-//W3C//DTD SVG 20010904//EN"
 "http://www.w3.org/TR/2001/REC-SVG-20010904/DTD/svg10.dtd">
<svg version="1.0" xmlns="http://www.w3.org/2000/svg"
 width="623.000000pt" height="633.000000pt" viewBox="0 0 623.000000 633.000000"
 preserveAspectRatio="xMidYMid meet">
<metadata>
Created by potrace 1.13, written by Peter Selinger 2001-2015
</metadata>
<g transform="translate(0.000000,633.000000) scale(0.100000,-0.100000)"
fill="#000000" stroke="none">
<path d="M1550 3520 l0 -2750 -279 0 c-153 0 -299 -3 -324 -6 l-46 -7 -1 -378
0 -379 2140 0 2140 0 -2 382 -3 382 -25 1 c-14 1 -159 2 -322 3 l-298 2 0
1830 0 1831 113 -3 112 -3 5 -1455 5 -1455 30 -54 c45 -82 104 -141 191 -192
146 -87 334 -123 513 -100 215 29 368 125 444 281 l32 65 3 1715 2 1716 -348
354 -348 355 -102 -105 c-56 -57 -102 -107 -102 -111 0 -5 133 -144 295 -310
l295 -303 0 -1634 0 -1635 -35 -33 c-43 -40 -88 -49 -240 -49 -129 1 -236 28
-287 74 -28 24 -33 37 -39 97 -5 38 -8 747 -8 1577 l-1 1507 -265 0 -265 0 0
770 0 770 -1490 0 -1490 0 0 -2750z m2600 1365 l0 -765 -1070 0 -1070 0 0 765
0 765 1070 0 1070 0 0 -765z"/>
</g>
</svg>
